<svg width="148" height="32" viewBox="0 0 148 32" fill="none" xmlns="http://www.w3.org/2000/svg">
<rect width="148" height="32" rx="6" fill="#238636"/>
<path d="M24.1621 11.0469V17.8145C24.1576 18.7533 23.8613 19.5212 23.2734 20.1182C22.6901 20.7152 21.8971 21.0501 20.8945 21.123L20.5459 21.1367C19.4567 21.1367 18.5885 20.8428 17.9414 20.2549C17.2943 19.667 16.9661 18.8581 16.957 17.8281V11.0469H18.2559V17.7871C18.2559 18.5072 18.4541 19.0677 18.8506 19.4688C19.2471 19.8652 19.8122 20.0635 20.5459 20.0635C21.2887 20.0635 21.8561 19.8652 22.248 19.4688C22.6445 19.0723 22.8428 18.514 22.8428 17.7939V11.0469H24.1621ZM30.3418 19.0381C30.3418 18.6963 30.2119 18.432 29.9521 18.2451C29.6969 18.0537 29.248 17.8896 28.6055 17.7529C27.9674 17.6162 27.4593 17.4521 27.0811 17.2607C26.7074 17.0693 26.4294 16.8415 26.2471 16.5771C26.0693 16.3128 25.9805 15.9984 25.9805 15.6338C25.9805 15.0277 26.2357 14.515 26.7461 14.0957C27.2611 13.6764 27.9173 13.4668 28.7148 13.4668C29.5534 13.4668 30.2324 13.6833 30.752 14.1162C31.276 14.5492 31.5381 15.1029 31.5381 15.7773H30.2666C30.2666 15.431 30.1185 15.1325 29.8223 14.8818C29.5306 14.6312 29.1615 14.5059 28.7148 14.5059C28.2546 14.5059 27.8945 14.6061 27.6348 14.8066C27.375 15.0072 27.2451 15.2692 27.2451 15.5928C27.2451 15.8981 27.3659 16.1283 27.6074 16.2832C27.849 16.4382 28.2842 16.5863 28.9131 16.7275C29.5465 16.8688 30.0592 17.0374 30.4512 17.2334C30.8431 17.4294 31.1325 17.6663 31.3193 17.9443C31.5107 18.2178 31.6064 18.5527 31.6064 18.9492C31.6064 19.61 31.3421 20.141 30.8135 20.542C30.2848 20.9385 29.599 21.1367 28.7559 21.1367C28.1634 21.1367 27.6393 21.0319 27.1836 20.8223C26.7279 20.6126 26.3701 20.321 26.1104 19.9473C25.8551 19.569 25.7275 19.1611 25.7275 18.7236H26.9922C27.015 19.1475 27.1836 19.4847 27.498 19.7354C27.8171 19.9814 28.2363 20.1045 28.7559 20.1045C29.2344 20.1045 29.6172 20.0088 29.9043 19.8174C30.196 19.6214 30.3418 19.3617 30.3418 19.0381ZM36.3232 21.1367C35.3206 21.1367 34.5049 20.8086 33.876 20.1523C33.2471 19.4915 32.9326 18.6097 32.9326 17.5068V17.2744C32.9326 16.5407 33.0716 15.8867 33.3496 15.3125C33.6322 14.7337 34.0241 14.2826 34.5254 13.959C35.0312 13.6309 35.5781 13.4668 36.166 13.4668C37.1276 13.4668 37.875 13.7835 38.4082 14.417C38.9414 15.0505 39.208 15.9574 39.208 17.1377V17.6641H34.1973C34.2155 18.3932 34.4274 18.9834 34.833 19.4346C35.2432 19.8812 35.7627 20.1045 36.3916 20.1045C36.8382 20.1045 37.2165 20.0133 37.5264 19.8311C37.8363 19.6488 38.1074 19.4072 38.3398 19.1064L39.1123 19.708C38.4925 20.6605 37.5628 21.1367 36.3232 21.1367ZM36.166 14.5059C35.6556 14.5059 35.2272 14.6927 34.8809 15.0664C34.5345 15.4355 34.3203 15.9551 34.2383 16.625H37.9434V16.5293C37.9069 15.8867 37.7337 15.39 37.4238 15.0391C37.1139 14.6836 36.6947 14.5059 36.166 14.5059ZM50.9521 12.127H47.7529V21H46.4473V12.127H43.2549V11.0469H50.9521V12.127ZM53.4951 14.499C54.0557 13.8109 54.7848 13.4668 55.6826 13.4668C57.2458 13.4668 58.0342 14.3486 58.0479 16.1123V21H56.7832V16.1055C56.7786 15.5723 56.6556 15.1781 56.4141 14.9229C56.1771 14.6676 55.8057 14.54 55.2998 14.54C54.8896 14.54 54.5296 14.6494 54.2197 14.8682C53.9098 15.0869 53.6683 15.374 53.4951 15.7295V21H52.2305V10.5H53.4951V14.499ZM61.3154 21H60.0508V13.6035H61.3154V21ZM59.9482 11.6416C59.9482 11.4365 60.0098 11.2633 60.1328 11.1221C60.2604 10.9808 60.4473 10.9102 60.6934 10.9102C60.9395 10.9102 61.1263 10.9808 61.2539 11.1221C61.3815 11.2633 61.4453 11.4365 61.4453 11.6416C61.4453 11.8467 61.3815 12.0176 61.2539 12.1543C61.1263 12.291 60.9395 12.3594 60.6934 12.3594C60.4473 12.3594 60.2604 12.291 60.1328 12.1543C60.0098 12.0176 59.9482 11.8467 59.9482 11.6416ZM67.6523 19.0381C67.6523 18.6963 67.5225 18.432 67.2627 18.2451C67.0075 18.0537 66.5586 17.8896 65.916 17.7529C65.278 17.6162 64.7699 17.4521 64.3916 17.2607C64.0179 17.0693 63.7399 16.8415 63.5576 16.5771C63.3799 16.3128 63.291 15.9984 63.291 15.6338C63.291 15.0277 63.5462 14.515 64.0566 14.0957C64.5716 13.6764 65.2279 13.4668 66.0254 13.4668C66.8639 13.4668 67.543 13.6833 68.0625 14.1162C68.5866 14.5492 68.8486 15.1029 68.8486 15.7773H67.5771C67.5771 15.431 67.429 15.1325 67.1328 14.8818C66.8411 14.6312 66.472 14.5059 66.0254 14.5059C65.5651 14.5059 65.2051 14.6061 64.9453 14.8066C64.6855 15.0072 64.5557 15.2692 64.5557 15.5928C64.5557 15.8981 64.6764 16.1283 64.918 16.2832C65.1595 16.4382 65.5947 16.5863 66.2236 16.7275C66.8571 16.8688 67.3698 17.0374 67.7617 17.2334C68.1536 17.4294 68.443 17.6663 68.6299 17.9443C68.8213 18.2178 68.917 18.5527 68.917 18.9492C68.917 19.61 68.6527 20.141 68.124 20.542C67.5954 20.9385 66.9095 21.1367 66.0664 21.1367C65.474 21.1367 64.9499 21.0319 64.4941 20.8223C64.0384 20.6126 63.6807 20.321 63.4209 19.9473C63.1657 19.569 63.0381 19.1611 63.0381 18.7236H64.3027C64.3255 19.1475 64.4941 19.4847 64.8086 19.7354C65.1276 19.9814 65.5469 20.1045 66.0664 20.1045C66.5449 20.1045 66.9277 20.0088 67.2148 19.8174C67.5065 19.6214 67.6523 19.3617 67.6523 19.0381ZM80.8389 12.127H77.6396V21H76.334V12.127H73.1416V11.0469H80.8389V12.127ZM84.5029 21.1367C83.5003 21.1367 82.6846 20.8086 82.0557 20.1523C81.4268 19.4915 81.1123 18.6097 81.1123 17.5068V17.2744C81.1123 16.5407 81.2513 15.8867 81.5293 15.3125C81.8118 14.7337 82.2038 14.2826 82.7051 13.959C83.2109 13.6309 83.7578 13.4668 84.3457 13.4668C85.3073 13.4668 86.0547 13.7835 86.5879 14.417C87.1211 15.0505 87.3877 15.9574 87.3877 17.1377V17.6641H82.377C82.3952 18.3932 82.6071 18.9834 83.0127 19.4346C83.4229 19.8812 83.9424 20.1045 84.5713 20.1045C85.0179 20.1045 85.3962 20.0133 85.7061 19.8311C86.016 19.6488 86.2871 19.4072 86.5195 19.1064L87.292 19.708C86.6722 20.6605 85.7425 21.1367 84.5029 21.1367ZM84.3457 14.5059C83.8353 14.5059 83.4069 14.6927 83.0605 15.0664C82.7142 15.4355 82.5 15.9551 82.418 16.625H86.123V16.5293C86.0866 15.8867 85.9134 15.39 85.6035 15.0391C85.2936 14.6836 84.8743 14.5059 84.3457 14.5059ZM90.0469 13.6035L90.0811 14.4238C90.6234 13.7858 91.3548 13.4668 92.2754 13.4668C93.3099 13.4668 94.014 13.8633 94.3877 14.6562C94.6338 14.3008 94.9528 14.0137 95.3447 13.7949C95.7412 13.5762 96.2083 13.4668 96.7461 13.4668C98.3685 13.4668 99.1934 14.3258 99.2207 16.0439V21H97.9561V16.1191C97.9561 15.5905 97.8353 15.1963 97.5938 14.9365C97.3522 14.6722 96.9466 14.54 96.377 14.54C95.9076 14.54 95.5179 14.6813 95.208 14.9639C94.8981 15.2419 94.7181 15.6178 94.668 16.0918V21H93.3965V16.1533C93.3965 15.0778 92.8701 14.54 91.8174 14.54C90.988 14.54 90.4206 14.8932 90.1152 15.5996V21H88.8506V13.6035H90.0469ZM107.383 17.3838C107.383 18.5094 107.125 19.4163 106.61 20.1045C106.095 20.7926 105.398 21.1367 104.519 21.1367C103.621 21.1367 102.914 20.8519 102.399 20.2822V23.8438H101.135V13.6035H102.29L102.352 14.4238C102.867 13.7858 103.582 13.4668 104.498 13.4668C105.387 13.4668 106.089 13.8018 106.604 14.4717C107.123 15.1416 107.383 16.0736 107.383 17.2676V17.3838ZM106.118 17.2402C106.118 16.4062 105.94 15.7477 105.585 15.2646C105.229 14.7816 104.742 14.54 104.122 14.54C103.356 14.54 102.782 14.8796 102.399 15.5586V19.0928C102.778 19.7673 103.356 20.1045 104.136 20.1045C104.742 20.1045 105.223 19.8652 105.578 19.3867C105.938 18.9036 106.118 18.1882 106.118 17.2402ZM110.37 21H109.105V10.5H110.37V21ZM116.967 21C116.894 20.8542 116.835 20.5944 116.789 20.2207C116.201 20.8314 115.499 21.1367 114.684 21.1367C113.954 21.1367 113.355 20.9316 112.886 20.5215C112.421 20.1068 112.188 19.5827 112.188 18.9492C112.188 18.179 112.48 17.582 113.063 17.1582C113.651 16.7298 114.476 16.5156 115.538 16.5156H116.769V15.9346C116.769 15.4925 116.636 15.1416 116.372 14.8818C116.108 14.6175 115.718 14.4854 115.203 14.4854C114.752 14.4854 114.374 14.5993 114.068 14.8271C113.763 15.055 113.61 15.3307 113.61 15.6543H112.339C112.339 15.2852 112.469 14.9297 112.729 14.5879C112.993 14.2415 113.348 13.9681 113.795 13.7676C114.246 13.5671 114.741 13.4668 115.278 13.4668C116.131 13.4668 116.798 13.681 117.281 14.1094C117.764 14.5332 118.015 15.1188 118.033 15.8662V19.2705C118.033 19.9495 118.12 20.4896 118.293 20.8906V21H116.967ZM114.868 20.0361C115.265 20.0361 115.641 19.9336 115.996 19.7285C116.352 19.5234 116.609 19.2568 116.769 18.9287V17.4111H115.777C114.228 17.4111 113.453 17.8646 113.453 18.7715C113.453 19.168 113.585 19.4779 113.85 19.7012C114.114 19.9245 114.453 20.0361 114.868 20.0361ZM121.731 11.8125V13.6035H123.112V14.5811H121.731V19.168C121.731 19.4642 121.793 19.6875 121.916 19.8379C122.039 19.9837 122.249 20.0566 122.545 20.0566C122.691 20.0566 122.891 20.0293 123.146 19.9746V21C122.814 21.0911 122.49 21.1367 122.176 21.1367C121.611 21.1367 121.185 20.9658 120.897 20.624C120.61 20.2822 120.467 19.7969 120.467 19.168V14.5811H119.12V13.6035H120.467V11.8125H121.731ZM127.665 21.1367C126.662 21.1367 125.847 20.8086 125.218 20.1523C124.589 19.4915 124.274 18.6097 124.274 17.5068V17.2744C124.274 16.5407 124.413 15.8867 124.691 15.3125C124.974 14.7337 125.366 14.2826 125.867 13.959C126.373 13.6309 126.92 13.4668 127.508 13.4668C128.469 13.4668 129.217 13.7835 129.75 14.417C130.283 15.0505 130.55 15.9574 130.55 17.1377V17.6641H125.539C125.557 18.3932 125.769 18.9834 126.175 19.4346C126.585 19.8812 127.104 20.1045 127.733 20.1045C128.18 20.1045 128.558 20.0133 128.868 19.8311C129.178 19.6488 129.449 19.4072 129.682 19.1064L130.454 19.708C129.834 20.6605 128.905 21.1367 127.665 21.1367ZM127.508 14.5059C126.997 14.5059 126.569 14.6927 126.223 15.0664C125.876 15.4355 125.662 15.9551 125.58 16.625H129.285V16.5293C129.249 15.8867 129.076 15.39 128.766 15.0391C128.456 14.6836 128.036 14.5059 127.508 14.5059Z" fill="white"/>
</svg>
