<svg width="141" height="32" viewBox="0 0 141 32" fill="none" xmlns="http://www.w3.org/2000/svg">
<rect width="141" height="32" rx="6" fill="#2DA44E"/>
<path d="M24.1621 11.0469V17.8145C24.1576 18.7533 23.8613 19.5212 23.2734 20.1182C22.6901 20.7152 21.8971 21.0501 20.8945 21.123L20.5459 21.1367C19.4567 21.1367 18.5885 20.8428 17.9414 20.2549C17.2943 19.667 16.9661 18.8581 16.957 17.8281V11.0469H18.2559V17.7871C18.2559 18.5072 18.4541 19.0677 18.8506 19.4688C19.2471 19.8652 19.8122 20.0635 20.5459 20.0635C21.2887 20.0635 21.8561 19.8652 22.248 19.4688C22.6445 19.0723 22.8428 18.514 22.8428 17.7939V11.0469H24.1621ZM30.3418 19.0381C30.3418 18.6963 30.2119 18.432 29.9521 18.2451C29.6969 18.0537 29.248 17.8896 28.6055 17.7529C27.9674 17.6162 27.4593 17.4521 27.0811 17.2607C26.7074 17.0693 26.4294 16.8415 26.2471 16.5771C26.0693 16.3128 25.9805 15.9984 25.9805 15.6338C25.9805 15.0277 26.2357 14.515 26.7461 14.0957C27.2611 13.6764 27.9173 13.4668 28.7148 13.4668C29.5534 13.4668 30.2324 13.6833 30.752 14.1162C31.276 14.5492 31.5381 15.1029 31.5381 15.7773H30.2666C30.2666 15.431 30.1185 15.1325 29.8223 14.8818C29.5306 14.6312 29.1615 14.5059 28.7148 14.5059C28.2546 14.5059 27.8945 14.6061 27.6348 14.8066C27.375 15.0072 27.2451 15.2692 27.2451 15.5928C27.2451 15.8981 27.3659 16.1283 27.6074 16.2832C27.849 16.4382 28.2842 16.5863 28.9131 16.7275C29.5465 16.8688 30.0592 17.0374 30.4512 17.2334C30.8431 17.4294 31.1325 17.6663 31.3193 17.9443C31.5107 18.2178 31.6064 18.5527 31.6064 18.9492C31.6064 19.61 31.3421 20.141 30.8135 20.542C30.2848 20.9385 29.599 21.1367 28.7559 21.1367C28.1634 21.1367 27.6393 21.0319 27.1836 20.8223C26.7279 20.6126 26.3701 20.321 26.1104 19.9473C25.8551 19.569 25.7275 19.1611 25.7275 18.7236H26.9922C27.015 19.1475 27.1836 19.4847 27.498 19.7354C27.8171 19.9814 28.2363 20.1045 28.7559 20.1045C29.2344 20.1045 29.6172 20.0088 29.9043 19.8174C30.196 19.6214 30.3418 19.3617 30.3418 19.0381ZM36.3232 21.1367C35.3206 21.1367 34.5049 20.8086 33.876 20.1523C33.2471 19.4915 32.9326 18.6097 32.9326 17.5068V17.2744C32.9326 16.5407 33.0716 15.8867 33.3496 15.3125C33.6322 14.7337 34.0241 14.2826 34.5254 13.959C35.0312 13.6309 35.5781 13.4668 36.166 13.4668C37.1276 13.4668 37.875 13.7835 38.4082 14.417C38.9414 15.0505 39.208 15.9574 39.208 17.1377V17.6641H34.1973C34.2155 18.3932 34.4274 18.9834 34.833 19.4346C35.2432 19.8812 35.7627 20.1045 36.3916 20.1045C36.8382 20.1045 37.2165 20.0133 37.5264 19.8311C37.8363 19.6488 38.1074 19.4072 38.3398 19.1064L39.1123 19.708C38.4925 20.6605 37.5628 21.1367 36.3232 21.1367ZM36.166 14.5059C35.6556 14.5059 35.2272 14.6927 34.8809 15.0664C34.5345 15.4355 34.3203 15.9551 34.2383 16.625H37.9434V16.5293C37.9069 15.8867 37.7337 15.39 37.4238 15.0391C37.1139 14.6836 36.6947 14.5059 36.166 14.5059ZM45.8662 11.8125V13.6035H47.2471V14.5811H45.8662V19.168C45.8662 19.4642 45.9277 19.6875 46.0508 19.8379C46.1738 19.9837 46.3835 20.0566 46.6797 20.0566C46.8255 20.0566 47.026 20.0293 47.2812 19.9746V21C46.9486 21.0911 46.625 21.1367 46.3105 21.1367C45.7454 21.1367 45.3193 20.9658 45.0322 20.624C44.7451 20.2822 44.6016 19.7969 44.6016 19.168V14.5811H43.2549V13.6035H44.6016V11.8125H45.8662ZM49.9951 14.499C50.5557 13.8109 51.2848 13.4668 52.1826 13.4668C53.7458 13.4668 54.5342 14.3486 54.5479 16.1123V21H53.2832V16.1055C53.2786 15.5723 53.1556 15.1781 52.9141 14.9229C52.6771 14.6676 52.3057 14.54 51.7998 14.54C51.3896 14.54 51.0296 14.6494 50.7197 14.8682C50.4098 15.0869 50.1683 15.374 49.9951 15.7295V21H48.7305V10.5H49.9951V14.499ZM57.8154 21H56.5508V13.6035H57.8154V21ZM56.4482 11.6416C56.4482 11.4365 56.5098 11.2633 56.6328 11.1221C56.7604 10.9808 56.9473 10.9102 57.1934 10.9102C57.4395 10.9102 57.6263 10.9808 57.7539 11.1221C57.8815 11.2633 57.9453 11.4365 57.9453 11.6416C57.9453 11.8467 57.8815 12.0176 57.7539 12.1543C57.6263 12.291 57.4395 12.3594 57.1934 12.3594C56.9473 12.3594 56.7604 12.291 56.6328 12.1543C56.5098 12.0176 56.4482 11.8467 56.4482 11.6416ZM64.1523 19.0381C64.1523 18.6963 64.0225 18.432 63.7627 18.2451C63.5075 18.0537 63.0586 17.8896 62.416 17.7529C61.778 17.6162 61.2699 17.4521 60.8916 17.2607C60.5179 17.0693 60.2399 16.8415 60.0576 16.5771C59.8799 16.3128 59.791 15.9984 59.791 15.6338C59.791 15.0277 60.0462 14.515 60.5566 14.0957C61.0716 13.6764 61.7279 13.4668 62.5254 13.4668C63.3639 13.4668 64.043 13.6833 64.5625 14.1162C65.0866 14.5492 65.3486 15.1029 65.3486 15.7773H64.0771C64.0771 15.431 63.929 15.1325 63.6328 14.8818C63.3411 14.6312 62.972 14.5059 62.5254 14.5059C62.0651 14.5059 61.7051 14.6061 61.4453 14.8066C61.1855 15.0072 61.0557 15.2692 61.0557 15.5928C61.0557 15.8981 61.1764 16.1283 61.418 16.2832C61.6595 16.4382 62.0947 16.5863 62.7236 16.7275C63.3571 16.8688 63.8698 17.0374 64.2617 17.2334C64.6536 17.4294 64.943 17.6663 65.1299 17.9443C65.3213 18.2178 65.417 18.5527 65.417 18.9492C65.417 19.61 65.1527 20.141 64.624 20.542C64.0954 20.9385 63.4095 21.1367 62.5664 21.1367C61.974 21.1367 61.4499 21.0319 60.9941 20.8223C60.5384 20.6126 60.1807 20.321 59.9209 19.9473C59.6657 19.569 59.5381 19.1611 59.5381 18.7236H60.8027C60.8255 19.1475 60.9941 19.4847 61.3086 19.7354C61.6276 19.9814 62.0469 20.1045 62.5664 20.1045C63.0449 20.1045 63.4277 20.0088 63.7148 19.8174C64.0065 19.6214 64.1523 19.3617 64.1523 19.0381ZM72.2529 11.8125V13.6035H73.6338V14.5811H72.2529V19.168C72.2529 19.4642 72.3145 19.6875 72.4375 19.8379C72.5605 19.9837 72.7702 20.0566 73.0664 20.0566C73.2122 20.0566 73.4128 20.0293 73.668 19.9746V21C73.3353 21.0911 73.0117 21.1367 72.6973 21.1367C72.1322 21.1367 71.7061 20.9658 71.4189 20.624C71.1318 20.2822 70.9883 19.7969 70.9883 19.168V14.5811H69.6416V13.6035H70.9883V11.8125H72.2529ZM78.1865 21.1367C77.1839 21.1367 76.3682 20.8086 75.7393 20.1523C75.1104 19.4915 74.7959 18.6097 74.7959 17.5068V17.2744C74.7959 16.5407 74.9349 15.8867 75.2129 15.3125C75.4954 14.7337 75.8874 14.2826 76.3887 13.959C76.8945 13.6309 77.4414 13.4668 78.0293 13.4668C78.9909 13.4668 79.7383 13.7835 80.2715 14.417C80.8047 15.0505 81.0713 15.9574 81.0713 17.1377V17.6641H76.0605C76.0788 18.3932 76.2907 18.9834 76.6963 19.4346C77.1064 19.8812 77.626 20.1045 78.2549 20.1045C78.7015 20.1045 79.0798 20.0133 79.3896 19.8311C79.6995 19.6488 79.9707 19.4072 80.2031 19.1064L80.9756 19.708C80.3558 20.6605 79.4261 21.1367 78.1865 21.1367ZM78.0293 14.5059C77.5189 14.5059 77.0905 14.6927 76.7441 15.0664C76.3978 15.4355 76.1836 15.9551 76.1016 16.625H79.8066V16.5293C79.7702 15.8867 79.597 15.39 79.2871 15.0391C78.9772 14.6836 78.5579 14.5059 78.0293 14.5059ZM83.7305 13.6035L83.7646 14.4238C84.307 13.7858 85.0384 13.4668 85.959 13.4668C86.9935 13.4668 87.6976 13.8633 88.0713 14.6562C88.3174 14.3008 88.6364 14.0137 89.0283 13.7949C89.4248 13.5762 89.8919 13.4668 90.4297 13.4668C92.0521 13.4668 92.877 14.3258 92.9043 16.0439V21H91.6396V16.1191C91.6396 15.5905 91.5189 15.1963 91.2773 14.9365C91.0358 14.6722 90.6302 14.54 90.0605 14.54C89.5911 14.54 89.2015 14.6813 88.8916 14.9639C88.5817 15.2419 88.4017 15.6178 88.3516 16.0918V21H87.0801V16.1533C87.0801 15.0778 86.5537 14.54 85.501 14.54C84.6715 14.54 84.1042 14.8932 83.7988 15.5996V21H82.5342V13.6035H83.7305ZM101.066 17.3838C101.066 18.5094 100.809 19.4163 100.294 20.1045C99.779 20.7926 99.0817 21.1367 98.2021 21.1367C97.3044 21.1367 96.598 20.8519 96.083 20.2822V23.8438H94.8184V13.6035H95.9736L96.0352 14.4238C96.5501 13.7858 97.2656 13.4668 98.1816 13.4668C99.0703 13.4668 99.7721 13.8018 100.287 14.4717C100.807 15.1416 101.066 16.0736 101.066 17.2676V17.3838ZM99.8018 17.2402C99.8018 16.4062 99.624 15.7477 99.2686 15.2646C98.9131 14.7816 98.4255 14.54 97.8057 14.54C97.04 14.54 96.4658 14.8796 96.083 15.5586V19.0928C96.4613 19.7673 97.04 20.1045 97.8193 20.1045C98.4255 20.1045 98.9062 19.8652 99.2617 19.3867C99.6217 18.9036 99.8018 18.1882 99.8018 17.2402ZM104.054 21H102.789V10.5H104.054V21ZM110.65 21C110.577 20.8542 110.518 20.5944 110.473 20.2207C109.885 20.8314 109.183 21.1367 108.367 21.1367C107.638 21.1367 107.039 20.9316 106.569 20.5215C106.104 20.1068 105.872 19.5827 105.872 18.9492C105.872 18.179 106.164 17.582 106.747 17.1582C107.335 16.7298 108.16 16.5156 109.222 16.5156H110.452V15.9346C110.452 15.4925 110.32 15.1416 110.056 14.8818C109.791 14.6175 109.402 14.4854 108.887 14.4854C108.436 14.4854 108.057 14.5993 107.752 14.8271C107.447 15.055 107.294 15.3307 107.294 15.6543H106.022C106.022 15.2852 106.152 14.9297 106.412 14.5879C106.676 14.2415 107.032 13.9681 107.479 13.7676C107.93 13.5671 108.424 13.4668 108.962 13.4668C109.814 13.4668 110.482 13.681 110.965 14.1094C111.448 14.5332 111.699 15.1188 111.717 15.8662V19.2705C111.717 19.9495 111.803 20.4896 111.977 20.8906V21H110.65ZM108.552 20.0361C108.948 20.0361 109.324 19.9336 109.68 19.7285C110.035 19.5234 110.293 19.2568 110.452 18.9287V17.4111H109.461C107.911 17.4111 107.137 17.8646 107.137 18.7715C107.137 19.168 107.269 19.4779 107.533 19.7012C107.798 19.9245 108.137 20.0361 108.552 20.0361ZM115.415 11.8125V13.6035H116.796V14.5811H115.415V19.168C115.415 19.4642 115.477 19.6875 115.6 19.8379C115.723 19.9837 115.932 20.0566 116.229 20.0566C116.374 20.0566 116.575 20.0293 116.83 19.9746V21C116.497 21.0911 116.174 21.1367 115.859 21.1367C115.294 21.1367 114.868 20.9658 114.581 20.624C114.294 20.2822 114.15 19.7969 114.15 19.168V14.5811H112.804V13.6035H114.15V11.8125H115.415ZM121.349 21.1367C120.346 21.1367 119.53 20.8086 118.901 20.1523C118.272 19.4915 117.958 18.6097 117.958 17.5068V17.2744C117.958 16.5407 118.097 15.8867 118.375 15.3125C118.658 14.7337 119.049 14.2826 119.551 13.959C120.057 13.6309 120.604 13.4668 121.191 13.4668C122.153 13.4668 122.9 13.7835 123.434 14.417C123.967 15.0505 124.233 15.9574 124.233 17.1377V17.6641H119.223C119.241 18.3932 119.453 18.9834 119.858 19.4346C120.269 19.8812 120.788 20.1045 121.417 20.1045C121.864 20.1045 122.242 20.0133 122.552 19.8311C122.862 19.6488 123.133 19.4072 123.365 19.1064L124.138 19.708C123.518 20.6605 122.588 21.1367 121.349 21.1367ZM121.191 14.5059C120.681 14.5059 120.253 14.6927 119.906 15.0664C119.56 15.4355 119.346 15.9551 119.264 16.625H122.969V16.5293C122.932 15.8867 122.759 15.39 122.449 15.0391C122.139 14.6836 121.72 14.5059 121.191 14.5059Z" fill="white"/>
</svg>
